<svg width="33" height="34" viewBox="0 0 33 34" fill="none" xmlns="http://www.w3.org/2000/svg">
<path d="M32.016 5.79363C31.6195 5.31394 31.1231 4.92814 30.5621 4.66363C30.001 4.39912 29.3891 4.2624 28.7697 4.26316H5.97948L5.92028 3.76437C5.79912 2.72759 5.30483 1.77167 4.53111 1.07784C3.7574 0.384001 2.75804 0.000485706 1.72252 0L1.40959 0C1.03574 0 0.677209 0.149718 0.412859 0.416217C0.14851 0.682716 0 1.04417 0 1.42105C0 1.79794 0.14851 2.15939 0.412859 2.42589C0.677209 2.69239 1.03574 2.84211 1.40959 2.84211H1.72252C2.06777 2.84215 2.40101 2.96994 2.65901 3.20123C2.91701 3.43252 3.08185 3.75122 3.12224 4.09689L5.06184 20.7232C5.2632 22.4523 6.08728 24.0467 7.37766 25.2038C8.66804 26.3609 10.3349 27 12.0619 27H26.7822C27.156 27 27.5146 26.8503 27.7789 26.5838C28.0433 26.3173 28.1918 25.9558 28.1918 25.5789C28.1918 25.2021 28.0433 24.8406 27.7789 24.5741C27.5146 24.3076 27.156 24.1579 26.7822 24.1579H12.0619C11.1894 24.1554 10.3391 23.881 9.62741 23.3721C8.91575 22.8633 8.37763 22.145 8.08681 21.3158H24.8891C26.5416 21.3159 28.1415 20.7306 29.4094 19.6623C30.6773 18.594 31.5326 17.1105 31.8257 15.471L32.9322 9.28374C33.0427 8.66985 33.0179 8.03899 32.8595 7.43585C32.7012 6.83272 32.4132 6.27207 32.016 5.79363ZM30.1652 8.77926L29.0573 14.9665C28.8813 15.9513 28.3672 16.8423 27.6052 17.4835C26.8432 18.1247 25.8817 18.4752 24.8891 18.4737H7.63857L6.31214 7.10526H28.7697C28.9768 7.10402 29.1816 7.14878 29.3696 7.23636C29.5575 7.32395 29.724 7.45221 29.8573 7.61202C29.9905 7.77183 30.0871 7.95927 30.1404 8.16102C30.1936 8.36276 30.2021 8.57384 30.1652 8.77926Z" fill="white"/>
<path d="M10 34C11.6569 34 13 32.6569 13 31C13 29.3431 11.6569 28 10 28C8.34315 28 7 29.3431 7 31C7 32.6569 8.34315 34 10 34Z" fill="white"/>
<path d="M24 34C25.6569 34 27 32.6569 27 31C27 29.3431 25.6569 28 24 28C22.3431 28 21 29.3431 21 31C21 32.6569 22.3431 34 24 34Z" fill="white"/>
</svg>
