<svg width="30" height="30" viewBox="0 0 30 30" fill="none" xmlns="http://www.w3.org/2000/svg">
<path d="M28.6846 26.9761L21.4721 19.7635C23.4376 17.3596 24.404 14.2923 24.1713 11.1959C23.9387 8.09951 22.5248 5.21099 20.2222 3.12781C17.9195 1.04463 14.9043 -0.0738282 11.8002 0.00378522C8.69601 0.0813987 5.74044 1.34914 3.54479 3.54479C1.34914 5.74044 0.0813987 8.69601 0.00378522 11.8002C-0.0738282 14.9043 1.04463 17.9195 3.12781 20.2222C5.21099 22.5248 8.09951 23.9387 11.1959 24.1713C14.2923 24.404 17.3596 23.4376 19.7635 21.4721L26.9761 28.6846C27.2039 28.9047 27.5092 29.0265 27.826 29.0238C28.1428 29.021 28.4459 28.894 28.6699 28.6699C28.894 28.4459 29.021 28.1428 29.0238 27.826C29.0265 27.5092 28.9047 27.2039 28.6846 26.9761ZM12.122 21.7887C10.2101 21.7887 8.34117 21.2217 6.7515 20.1595C5.16182 19.0974 3.92282 17.5876 3.19117 15.8213C2.45953 14.0549 2.2681 12.1113 2.64109 10.2361C3.01408 8.36099 3.93474 6.63855 5.28664 5.28664C6.63855 3.93474 8.36099 3.01408 10.2361 2.64109C12.1113 2.2681 14.0549 2.45953 15.8213 3.19117C17.5876 3.92282 19.0974 5.16182 20.1595 6.7515C21.2217 8.34117 21.7887 10.2101 21.7887 12.122C21.7858 14.6849 20.7664 17.142 18.9542 18.9542C17.142 20.7664 14.6849 21.7858 12.122 21.7887Z" fill="#737373"/>
</svg>
