<svg width="34" height="34" viewBox="0 0 34 34" fill="none" xmlns="http://www.w3.org/2000/svg">
<circle cx="3" cy="3" r="3" fill="white"/>
<circle cx="3" cy="10" r="3" fill="white"/>
<circle cx="3" cy="17" r="3" fill="white"/>
<circle cx="3" cy="24" r="3" fill="white"/>
<circle cx="3" cy="31" r="3" fill="white"/>
<circle cx="10" cy="3" r="3" fill="white"/>
<circle cx="10" cy="10" r="3" fill="white"/>
<circle cx="10" cy="17" r="3" fill="white"/>
<circle cx="10" cy="24" r="3" fill="white"/>
<circle cx="10" cy="31" r="3" fill="white"/>
<circle cx="17" cy="3" r="3" fill="white"/>
<circle cx="17" cy="10" r="3" fill="white"/>
<circle cx="17" cy="17" r="3" fill="white"/>
<circle cx="17" cy="24" r="3" fill="white"/>
<circle cx="17" cy="31" r="3" fill="white"/>
<circle cx="24" cy="3" r="3" fill="white"/>
<circle cx="31" cy="3" r="3" fill="white"/>
<circle cx="24" cy="10" r="3" fill="white"/>
<circle cx="31" cy="10" r="3" fill="white"/>
<circle cx="24" cy="17" r="3" fill="white"/>
<circle cx="31" cy="17" r="3" fill="white"/>
<circle cx="24" cy="24" r="3" fill="white"/>
<circle cx="24" cy="31" r="3" fill="white"/>
<circle cx="31" cy="24" r="3" fill="white"/>
<circle cx="31" cy="31" r="3" fill="white"/>
</svg>
