<svg width="33" height="34" fill="none" xmlns="http://www.w3.org/2000/svg"><path d="M32.016 5.794a4.224 4.224 0 0 0-1.454-1.13 4.19 4.19 0 0 0-1.792-.4H5.98l-.06-.5a4.274 4.274 0 0 0-1.389-2.686A4.21 4.21 0 0 0 1.723 0H1.41C1.036 0 .677.15.413.416a1.427 1.427 0 0 0 0 2.01c.264.266.623.416.997.416h.313a1.42 1.42 0 0 1 1.399 1.255l1.94 16.626a7.124 7.124 0 0 0 2.316 4.48A7.016 7.016 0 0 0 12.062 27h14.72c.374 0 .733-.15.997-.416a1.427 1.427 0 0 0 0-2.01 1.404 1.404 0 0 0-.997-.416h-14.72a4.205 4.205 0 0 1-2.435-.786 4.26 4.26 0 0 1-1.54-2.056h16.802a7.014 7.014 0 0 0 4.52-1.654 7.117 7.117 0 0 0 2.417-4.191l1.106-6.187a4.287 4.287 0 0 0-.916-3.49Zm-1.85 2.985-1.109 6.188a4.27 4.27 0 0 1-1.452 2.516 4.208 4.208 0 0 1-2.716.99H7.64L6.312 7.106H28.77a1.4 1.4 0 0 1 1.087.507 1.426 1.426 0 0 1 .308 1.167ZM10 34a3 3 0 1 0 0-6 3 3 0 0 0 0 6Zm14 0a3 3 0 1 0 0-6 3 3 0 0 0 0 6Z" fill="#fff"/></svg>