<svg width="275" height="379" viewBox="0 0 275 379" fill="none" xmlns="http://www.w3.org/2000/svg">
<path d="M266.8 143.28C263.496 139.283 259.359 136.068 254.684 133.864C250.009 131.659 244.909 130.52 239.748 130.526H49.829L49.3356 126.37C48.326 117.73 44.2069 109.764 37.7593 103.982C31.3116 98.2 22.9837 95.004 14.3543 95H11.7466C8.63119 95 5.6434 96.2476 3.44049 98.4685C1.23758 100.689 0 103.701 0 106.842C0 109.983 1.23758 112.995 3.44049 115.216C5.6434 117.437 8.63119 118.684 11.7466 118.684H14.3543C17.2314 118.685 20.0084 119.749 22.1584 121.677C24.3085 123.604 25.682 126.26 26.0187 129.141L42.182 267.693C43.86 282.103 50.7273 295.39 61.4805 305.032C72.2337 314.674 86.1242 320 100.515 320H223.185C226.3 320 229.288 318.752 231.491 316.532C233.694 314.311 234.932 311.299 234.932 308.158C234.932 305.017 233.694 302.005 231.491 299.784C229.288 297.563 226.3 296.316 223.185 296.316H100.515C93.245 296.295 86.1588 294.008 80.2284 289.768C74.2979 285.528 69.8136 279.542 67.3901 272.632H207.409C221.18 272.632 234.513 267.755 245.079 258.853C255.644 249.95 262.771 237.587 265.214 223.925L274.435 172.364C275.356 167.249 275.149 161.992 273.829 156.965C272.51 151.939 270.11 147.267 266.8 143.28V143.28ZM251.377 168.161L242.144 219.721C240.677 227.928 236.394 235.353 230.043 240.696C223.693 246.039 215.681 248.96 207.409 248.947H63.6547L52.6012 154.211H239.748C241.473 154.2 243.18 154.573 244.746 155.303C246.313 156.033 247.7 157.102 248.81 158.434C249.921 159.765 250.726 161.327 251.17 163.008C251.613 164.69 251.684 166.449 251.377 168.161V168.161Z" fill="#E0E0E0"/>
<path d="M83.3334 378.333C97.1405 378.333 108.333 367.141 108.333 353.333C108.333 339.526 97.1405 328.333 83.3334 328.333C69.5263 328.333 58.3334 339.526 58.3334 353.333C58.3334 367.141 69.5263 378.333 83.3334 378.333Z" fill="#E0E0E0"/>
<path d="M200 378.333C213.807 378.333 225 367.141 225 353.333C225 339.526 213.807 328.333 200 328.333C186.193 328.333 175 339.526 175 353.333C175 367.141 186.193 378.333 200 378.333Z" fill="#E0E0E0"/>
<line x1="147.5" y1="7.5" x2="147.5" y2="68.5" stroke="#E0E0E0" stroke-width="15" stroke-linecap="round"/>
<line x1="218.155" y1="22.3562" x2="185.356" y2="73.7881" stroke="#E0E0E0" stroke-width="15" stroke-linecap="round"/>
<line x1="108.201" y1="72.4806" x2="69.8771" y2="25.0228" stroke="#E0E0E0" stroke-width="15" stroke-linecap="round"/>
</svg>
