<svg width="26" height="26" viewBox="0 0 26 26" fill="none" xmlns="http://www.w3.org/2000/svg">
<path d="M13.8435 23.5361H11.8216C11.3449 23.5361 10.8877 23.3468 10.5507 23.0097C10.2136 22.6727 10.0243 22.2155 10.0243 21.7388V20.5727C10.0185 20.504 9.99326 20.4384 9.95159 20.3834C9.90992 20.3285 9.85349 20.2866 9.78889 20.2625C9.72343 20.2205 9.64732 20.1982 9.56958 20.1982C9.49183 20.1982 9.41572 20.2205 9.35026 20.2625L8.55859 21.1183C8.39253 21.2856 8.19502 21.4183 7.97745 21.5089C7.75987 21.5994 7.52653 21.6461 7.29085 21.6461C7.05518 21.6461 6.82183 21.5994 6.60426 21.5089C6.38668 21.4183 6.18917 21.2856 6.02311 21.1183L4.55745 19.6848C4.3878 19.519 4.25306 19.321 4.16119 19.1023C4.06932 18.8837 4.02217 18.6488 4.02254 18.4117C4.02323 17.9265 4.21547 17.4613 4.55745 17.1172L5.34912 16.3255C5.38734 16.2666 5.40768 16.1978 5.40768 16.1276C5.40768 16.0574 5.38734 15.9886 5.34912 15.9297C5.28493 15.7692 5.17795 15.6515 5.02817 15.6515H3.93695C3.4593 15.6487 3.00217 15.457 2.66541 15.1182C2.32866 14.7794 2.13964 14.3212 2.13965 13.8435V11.8216C2.13965 11.3449 2.32901 10.8877 2.66607 10.5507C3.00313 10.2136 3.46028 10.0243 3.93695 10.0243H5.10306C5.17176 10.0185 5.23741 9.99326 5.29234 9.95159C5.34727 9.90992 5.38922 9.85349 5.41331 9.78889C5.45525 9.72343 5.47754 9.64732 5.47754 9.56958C5.47754 9.49183 5.45525 9.41572 5.41331 9.35026L4.55745 8.55859C4.39022 8.39253 4.2575 8.19502 4.16693 7.97745C4.07636 7.75987 4.02973 7.52653 4.02973 7.29085C4.02973 7.05518 4.07636 6.82183 4.16693 6.60426C4.2575 6.38668 4.39022 6.18917 4.55745 6.02311L5.99102 4.55745C6.15512 4.3886 6.35136 4.25429 6.56816 4.16243C6.78496 4.07056 7.01795 4.023 7.25341 4.02254C7.49545 4.02148 7.73533 4.06818 7.95929 4.15997C8.18326 4.25176 8.38691 4.38683 8.55859 4.55745L9.35026 5.34912C9.4092 5.38734 9.47794 5.40768 9.54818 5.40768C9.61842 5.40768 9.68716 5.38734 9.7461 5.34912C9.90657 5.28493 10.0243 5.17795 10.0243 5.02817V3.93695C10.0271 3.4593 10.2188 3.00217 10.5576 2.66541C10.8963 2.32866 11.3546 2.13964 11.8323 2.13965H13.9077C14.3844 2.13965 14.8415 2.32901 15.1786 2.66607C15.5157 3.00313 15.705 3.46028 15.705 3.93695V5.10306C15.7108 5.17176 15.736 5.23741 15.7777 5.29234C15.8194 5.34727 15.8758 5.38922 15.9404 5.41331C16.0058 5.45525 16.082 5.47754 16.1597 5.47754C16.2374 5.47754 16.3135 5.45525 16.379 5.41331L17.1172 4.55745C17.2832 4.39022 17.4808 4.2575 17.6983 4.16693C17.9159 4.07636 18.1493 4.02973 18.3849 4.02973C18.6206 4.02973 18.8539 4.07636 19.0715 4.16693C19.2891 4.2575 19.4866 4.39022 19.6527 4.55745L21.1183 5.99102C21.2875 6.15711 21.4219 6.35522 21.5138 6.57379C21.6056 6.79236 21.653 7.02703 21.6532 7.26411C21.6584 7.50513 21.6135 7.74461 21.5215 7.96742C21.4294 8.19022 21.2921 8.39152 21.1183 8.55859L20.3267 9.35026C20.2884 9.4092 20.2681 9.47794 20.2681 9.54818C20.2681 9.61842 20.2884 9.68716 20.3267 9.7461C20.3908 9.90657 20.4978 10.0243 20.6476 10.0243H21.8137C22.2782 10.0463 22.7164 10.2464 23.0372 10.5831C23.358 10.9198 23.5367 11.3672 23.5361 11.8323V13.9077C23.5361 14.3844 23.3468 14.8415 23.0097 15.1786C22.6727 15.5157 22.2155 15.705 21.7388 15.705H20.5727C20.504 15.7108 20.4384 15.736 20.3834 15.7777C20.3285 15.8194 20.2866 15.8758 20.2625 15.9404C20.2243 15.9993 20.2039 16.0681 20.2039 16.1383C20.2039 16.2085 20.2243 16.2773 20.2625 16.3362L21.0862 17.16C21.2535 17.326 21.3862 17.5235 21.4768 17.7411C21.5673 17.9587 21.614 18.192 21.614 18.4277C21.614 18.6634 21.5673 18.8967 21.4768 19.1143C21.3862 19.3319 21.2535 19.5294 21.0862 19.6955L19.6848 21.1183C19.5207 21.2872 19.3244 21.4215 19.1076 21.5134C18.8908 21.6052 18.6578 21.6528 18.4224 21.6532C17.9447 21.647 17.4881 21.4551 17.1493 21.1183L16.3255 20.3267C16.2666 20.2884 16.1978 20.2681 16.1276 20.2681C16.0574 20.2681 15.9886 20.2884 15.9297 20.3267C15.7692 20.3908 15.6515 20.4978 15.6515 20.6476V21.8137C15.6295 22.2782 15.4294 22.7164 15.0926 23.0372C14.7559 23.358 14.3086 23.5367 13.8435 23.5361V23.5361ZM12.1639 21.3965H13.5119V20.5727C13.5164 20.0794 13.6673 19.5985 13.9453 19.1909C14.2234 18.7834 14.6161 18.4675 15.0738 18.2833C15.5334 18.0824 16.0424 18.023 16.5359 18.1125C17.0294 18.2021 17.485 18.4366 17.8447 18.7861L18.4224 19.3638L19.3638 18.4224L18.7861 17.834C18.4388 17.4797 18.2045 17.0303 18.1131 16.5426C18.0217 16.055 18.0772 15.5512 18.2726 15.0952C18.4585 14.6395 18.775 14.249 19.1825 13.973C19.5899 13.6969 20.0699 13.5477 20.562 13.544H21.3965V12.1639H20.5727C20.0794 12.1593 19.5985 12.0085 19.1909 11.7304C18.7834 11.4524 18.4675 11.0597 18.2833 10.602C18.0824 10.1424 18.023 9.63341 18.1125 9.13992C18.2021 8.64643 18.4366 8.19079 18.7861 7.83111L19.3638 7.25341L18.4224 6.31196L17.834 6.88967C17.4742 7.21828 17.0281 7.43726 16.548 7.52081C16.068 7.60437 15.5741 7.54903 15.1245 7.36131C14.6748 7.17359 14.2882 6.8613 14.0101 6.46122C13.732 6.06114 13.574 5.58993 13.5547 5.10306V4.2793H12.1639V5.10306C12.1593 5.59641 12.0085 6.07731 11.7304 6.48486C11.4524 6.89241 11.0597 7.20829 10.602 7.39249C10.1424 7.59337 9.63341 7.65282 9.13992 7.56327C8.64643 7.47372 8.19079 7.23922 7.83111 6.88967L7.25341 6.31196L6.31196 7.25341L6.88967 7.84181C7.21828 8.20157 7.43726 8.64773 7.52081 9.12775C7.60437 9.60778 7.54903 10.1017 7.36131 10.5513C7.17359 11.001 6.8613 11.3876 6.46122 11.6657C6.06114 11.9438 5.58993 12.1018 5.10306 12.1211H4.2793V13.4691H5.10306C5.59641 13.4736 6.07731 13.6245 6.48486 13.9025C6.89241 14.1806 7.20829 14.5733 7.39249 15.031C7.59337 15.4906 7.65282 15.9996 7.56327 16.4931C7.47372 16.9866 7.23922 17.4422 6.88967 17.8019L6.31196 18.3796L7.25341 19.321L7.84181 18.7433C8.20157 18.4147 8.64773 18.1957 9.12775 18.1122C9.60778 18.0286 10.1017 18.084 10.5513 18.2717C11.001 18.4594 11.3876 18.7717 11.6657 19.1718C11.9438 19.5718 12.1018 20.0431 12.1211 20.5299L12.1639 21.3965Z" fill="white"/>
<path d="M12.8379 16.5825C12.0973 16.5825 11.3734 16.3629 10.7576 15.9515C10.1419 15.54 9.66194 14.9552 9.37853 14.2711C9.09513 13.5869 9.02098 12.834 9.16545 12.1076C9.30993 11.3813 9.66655 10.7141 10.1902 10.1905C10.7139 9.6668 11.3811 9.31018 12.1074 9.1657C12.8337 9.02122 13.5866 9.09537 14.2708 9.37878C14.955 9.66218 15.5398 10.1421 15.9512 10.7579C16.3627 11.3736 16.5823 12.0976 16.5823 12.8381C16.5823 13.8312 16.1878 14.7836 15.4856 15.4858C14.7834 16.188 13.831 16.5825 12.8379 16.5825V16.5825ZM12.8379 11.2334C12.5205 11.2334 12.2102 11.3275 11.9463 11.5038C11.6825 11.6802 11.4768 11.9308 11.3553 12.224C11.2339 12.5173 11.2021 12.8399 11.264 13.1512C11.3259 13.4625 11.4787 13.7484 11.7032 13.9729C11.9276 14.1973 12.2135 14.3501 12.5248 14.412C12.8361 14.474 13.1588 14.4422 13.452 14.3207C13.7452 14.1993 13.9959 13.9936 14.1722 13.7297C14.3485 13.4658 14.4426 13.1555 14.4426 12.8381C14.4426 12.4125 14.2736 12.0044 13.9726 11.7034C13.6717 11.4025 13.2635 11.2334 12.8379 11.2334Z" fill="white"/>
</svg>
