<svg width="21" height="21" viewBox="0 0 21 21" fill="none" xmlns="http://www.w3.org/2000/svg">
<g clip-path="url(#clip0_1_169)">
<path d="M12.1144 15.1084L9.26011 17.9627C8.43142 18.7692 7.3185 19.217 6.16213 19.2093C5.00576 19.2015 3.89894 18.7388 3.08113 17.9212C2.26332 17.1037 1.80029 15.997 1.79222 14.8406C1.78414 13.6842 2.23168 12.5712 3.03799 11.7423L5.89224 8.8854C6.05631 8.72122 6.14843 8.49858 6.14835 8.26647C6.14827 8.03436 6.05598 7.81179 5.8918 7.64772C5.72761 7.48365 5.50498 7.39152 5.27287 7.3916C5.04075 7.39168 4.81818 7.48397 4.65411 7.64815L1.80074 10.505C0.647725 11.6586 0.000200298 13.223 0.000610546 14.854C0.00102079 16.485 0.649333 18.0491 1.80292 19.2021C2.95652 20.3551 4.52089 21.0026 6.15191 21.0022C7.78292 21.0018 9.34697 20.3535 10.5 19.1999L13.3542 16.3457C13.5136 16.1806 13.6018 15.9596 13.5998 15.7302C13.5978 15.5008 13.5058 15.2813 13.3436 15.1191C13.1813 14.9568 12.9619 14.8648 12.7325 14.8628C12.503 14.8608 12.282 14.949 12.117 15.1084H12.1144Z" fill="#46C2CB"/>
<path d="M19.201 1.8034C18.6317 1.23011 17.9542 0.775515 17.2078 0.465956C16.4615 0.156396 15.6612 -0.0019744 14.8532 2.15607e-05C14.0456 -0.0021237 13.2456 0.15584 12.4995 0.464779C11.7533 0.773718 11.0758 1.2275 10.5062 1.7999L7.64754 4.65502C7.48336 4.81909 7.39107 5.04166 7.39099 5.27377C7.39091 5.50589 7.48304 5.72852 7.64711 5.89271C7.81118 6.05689 8.03375 6.14918 8.26586 6.14926C8.49797 6.14934 8.72061 6.05722 8.88479 5.89315L11.7417 3.0389C12.149 2.62909 12.6336 2.30416 13.1674 2.08292C13.7012 1.86169 14.2736 1.74853 14.8514 1.75002C15.7214 1.75031 16.5718 2.00852 17.295 2.49202C18.0183 2.97552 18.5819 3.66259 18.9148 4.46639C19.2476 5.27018 19.3346 6.15461 19.1649 7.00788C18.9952 7.86114 18.5763 8.64492 17.9612 9.26015L15.1069 12.1144C14.9427 12.2786 14.8505 12.5013 14.8505 12.7335C14.8505 12.9657 14.9427 13.1883 15.1069 13.3525C15.2711 13.5167 15.4938 13.6089 15.726 13.6089C15.9582 13.6089 16.1809 13.5167 16.345 13.3525L19.1993 10.5C20.3508 9.34598 20.9977 7.78236 20.998 6.15207C20.9983 4.52178 20.3521 2.9579 19.201 1.8034Z" fill="#46C2CB"/>
<path d="M12.5064 7.25637L7.25639 12.5064C7.17281 12.5871 7.10615 12.6836 7.0603 12.7904C7.01444 12.8971 6.9903 13.012 6.98929 13.1281C6.98828 13.2443 7.01042 13.3595 7.05442 13.4671C7.09841 13.5746 7.16338 13.6723 7.24554 13.7545C7.3277 13.8366 7.42539 13.9016 7.53293 13.9456C7.64046 13.9896 7.75568 14.0117 7.87186 14.0107C7.98804 14.0097 8.10286 13.9856 8.20961 13.9397C8.31637 13.8938 8.41292 13.8272 8.49364 13.7436L13.7436 8.49361C13.903 8.32859 13.9912 8.10756 13.9892 7.87814C13.9872 7.64872 13.8952 7.42926 13.733 7.26702C13.5707 7.10479 13.3513 7.01277 13.1219 7.01078C12.8924 7.00878 12.6714 7.09698 12.5064 7.25637Z" fill="#46C2CB"/>
</g>
<defs>
<clipPath id="clip0_1_169">
<rect width="21" height="21" fill="white"/>
</clipPath>
</defs>
</svg>
